<svg width="25" height="24" viewBox="0 0 25 24" fill="none" xmlns="http://www.w3.org/2000/svg">
<path opacity="0.5" d="M17.0883 2H7.57825C6.41925 2 5.84025 2 5.37225 2.163C4.93103 2.31946 4.53181 2.5755 4.20559 2.91126C3.87937 3.24702 3.63493 3.65345 3.49125 4.099C3.33325 4.581 3.33325 5.177 3.33325 6.37V20.374C3.33325 21.232 4.31825 21.688 4.94125 21.118C5.11604 20.9565 5.34527 20.8668 5.58325 20.8668C5.82123 20.8668 6.05047 20.9565 6.22525 21.118L6.70825 21.56C7.01446 21.8432 7.41619 22.0004 7.83325 22.0004C8.25032 22.0004 8.65204 21.8432 8.95825 21.56C9.26446 21.2768 9.66619 21.1196 10.0833 21.1196C10.5003 21.1196 10.902 21.2768 11.2083 21.56C11.5145 21.8432 11.9162 22.0004 12.3333 22.0004C12.7503 22.0004 13.152 21.8432 13.4583 21.56C13.7645 21.2768 14.1662 21.1196 14.5833 21.1196C15.0003 21.1196 15.402 21.2768 15.7083 21.56C16.0145 21.8432 16.4162 22.0004 16.8333 22.0004C17.2503 22.0004 17.652 21.8432 17.9583 21.56L18.4413 21.118C18.616 20.9565 18.8453 20.8668 19.0833 20.8668C19.3212 20.8668 19.5505 20.9565 19.7253 21.118C20.3483 21.688 21.3333 21.232 21.3333 20.374V6.37C21.3333 5.177 21.3333 4.58 21.1753 4.1C21.0318 3.65423 20.7874 3.24757 20.4612 2.91162C20.1349 2.57567 19.7356 2.31949 19.2943 2.163C18.8263 2 18.2473 2 17.0883 2Z" fill="#057B9F" stroke="white"/>
<path d="M10.8333 11H17.3333H10.8333ZM7.33325 11H7.83325H7.33325ZM7.33325 7.5H7.83325H7.33325ZM7.33325 14.5H7.83325H7.33325ZM10.8333 7.5H17.3333H10.8333ZM10.8333 14.5H17.3333H10.8333Z" fill="#057B9F"/>
<path d="M10.8333 11H17.3333M7.33325 11H7.83325M7.33325 7.5H7.83325M7.33325 14.5H7.83325M10.8333 7.5H17.3333M10.8333 14.5H17.3333" stroke="white" stroke-width="1.5" stroke-linecap="round"/>
</svg>
