<svg width="40" height="40" viewBox="0 0 40 40" fill="none" xmlns="http://www.w3.org/2000/svg">
<circle opacity="0.05" cx="20" cy="20" r="20" fill="#356AA7"/>
<path d="M18.3334 22.5L15.7706 25.0947C15.4132 25.4567 15.2344 25.6376 15.0808 25.6504C14.9475 25.6615 14.817 25.6079 14.73 25.5064C14.6297 25.3893 14.6297 25.135 14.6297 24.6263V23.3263C14.6297 22.87 14.2559 22.5397 13.8044 22.4736V22.4736C12.7115 22.3135 11.8532 21.4552 11.6931 20.3623C11.6667 20.1821 11.6667 19.9671 11.6667 19.537V15.6667C11.6667 14.2665 11.6667 13.5665 11.9392 13.0317C12.1789 12.5613 12.5613 12.1788 13.0317 11.9392C13.5665 11.6667 14.2666 11.6667 15.6667 11.6667H21.8334C23.2335 11.6667 23.9336 11.6667 24.4683 11.9392C24.9387 12.1788 25.3212 12.5613 25.5609 13.0317C25.8334 13.5665 25.8334 14.2665 25.8334 15.6667V19.1667M25.8334 28.3333L24.0197 27.0724C23.7647 26.8952 23.6373 26.8065 23.4985 26.7437C23.3754 26.6879 23.2459 26.6473 23.113 26.6228C22.9632 26.5952 22.808 26.5952 22.4975 26.5952H21C20.0666 26.5952 19.5999 26.5952 19.2434 26.4136C18.9298 26.2538 18.6748 25.9988 18.515 25.6852C18.3334 25.3287 18.3334 24.862 18.3334 23.9286V21.8333C18.3334 20.8999 18.3334 20.4332 18.515 20.0767C18.6748 19.7631 18.9298 19.5081 19.2434 19.3483C19.5999 19.1667 20.0666 19.1667 21 19.1667H25.6667C26.6001 19.1667 27.0668 19.1667 27.4233 19.3483C27.7369 19.5081 27.9919 19.7631 28.1517 20.0767C28.3334 20.4332 28.3334 20.8999 28.3334 21.8333V24.0952C28.3334 24.8718 28.3334 25.2601 28.2065 25.5664C28.0373 25.9748 27.7129 26.2992 27.3045 26.4684C26.9982 26.5952 26.6099 26.5952 25.8334 26.5952V28.3333Z" stroke="#356AA7" stroke-linecap="round" stroke-linejoin="round"/>
</svg>
