<svg width="40" height="40" viewBox="0 0 40 40" fill="none" xmlns="http://www.w3.org/2000/svg">
<circle opacity="0.05" cx="20" cy="20" r="20" fill="#356AA7"/>
<path d="M22.5 11.6667V12.8333C22.5 13.3 22.5 13.5334 22.4092 13.7117C22.3293 13.8685 22.2018 13.9959 22.045 14.0758C21.8668 14.1667 21.6334 14.1667 21.1667 14.1667H18.8334C18.3666 14.1667 18.1333 14.1667 17.955 14.0758C17.7982 13.9959 17.6707 13.8685 17.5908 13.7117C17.5 13.5334 17.5 13.3 17.5 12.8333V11.6667M16.8334 28.3333H23.1667C24.1001 28.3333 24.5668 28.3333 24.9233 28.1517C25.2369 27.9919 25.4919 27.7369 25.6517 27.4233C25.8334 27.0668 25.8334 26.6001 25.8334 25.6667V14.3333C25.8334 13.3999 25.8334 12.9332 25.6517 12.5767C25.4919 12.2631 25.2369 12.0081 24.9233 11.8483C24.5668 11.6667 24.1001 11.6667 23.1667 11.6667H16.8334C15.8999 11.6667 15.4332 11.6667 15.0767 11.8483C14.7631 12.0081 14.5081 12.2631 14.3483 12.5767C14.1667 12.9332 14.1667 13.3999 14.1667 14.3333V25.6667C14.1667 26.6001 14.1667 27.0668 14.3483 27.4233C14.5081 27.7369 14.7631 27.9919 15.0767 28.1517C15.4332 28.3333 15.8999 28.3333 16.8334 28.3333Z" stroke="#356AA7" stroke-linecap="round" stroke-linejoin="round"/>
</svg>
