<svg width="23" height="18" viewBox="0 0 23 18" fill="none" xmlns="http://www.w3.org/2000/svg">
<path d="M11.905 4.89415L11.905 4.89413C11.8321 3.86396 12.1465 2.94323 12.763 2.28143C13.3812 1.61776 14.252 1.25 15.2499 1.25C16.2375 1.25 17.1119 1.62359 17.7293 2.2869L17.7293 2.28691C18.3517 2.95557 18.6657 3.87498 18.5931 4.89336C18.5225 5.86838 18.1334 6.77448 17.507 7.4477C16.8628 8.13954 16.0596 8.5 15.2499 8.5C14.4409 8.5 13.6369 8.1396 12.9906 7.44777C12.3629 6.77341 11.9737 5.86699 11.905 4.89415ZM21.432 16.75H21.4295L9.07088 16.75L9.06821 16.75C8.946 16.7507 8.82527 16.7233 8.7153 16.6699C8.60612 16.617 8.51045 16.5399 8.43553 16.4444C8.35254 16.335 8.29519 16.2083 8.26774 16.0737C8.24011 15.9383 8.24348 15.7983 8.27761 15.6643L8.27825 15.6618C8.63981 14.21 9.53374 13.0018 10.8838 12.1654C12.0873 11.4202 13.6379 11 15.2499 11C16.8975 11 18.4051 11.4025 19.615 12.1469L19.6151 12.147C20.966 12.9777 21.8614 14.1916 22.2216 15.6627L22.2224 15.6657C22.2561 15.7999 22.2591 15.9399 22.2312 16.0754L22.7208 16.1765L22.2312 16.0754C22.2034 16.2101 22.1457 16.3367 22.0625 16.4461C21.9877 16.541 21.8924 16.6177 21.7836 16.6703L22.0014 17.1204L21.7836 16.6703C21.674 16.7234 21.5538 16.7506 21.432 16.75ZM21.4295 17.25H9.07088H21.4295ZM4.36598 3.59609L4.36611 3.59595C4.86806 3.05614 5.5825 2.75 6.39057 2.75C7.19639 2.75 7.90504 3.05645 8.4117 3.60151L8.41185 3.60168C8.92459 4.15277 9.18387 4.90432 9.12301 5.73323L9.12294 5.73424C9.00282 7.41673 7.71899 8.6875 6.39057 8.6875C5.05928 8.6875 3.77535 7.41633 3.65497 5.73393C3.59726 4.89462 3.85878 4.14113 4.36598 3.59609ZM9.24877 11.1109L9.24917 11.1111C9.2666 11.1196 9.28352 11.128 9.29994 11.1363C7.91889 12.1753 6.97388 13.5793 6.56215 15.231C6.56054 15.2373 6.55896 15.2436 6.55739 15.25L1.45557 15.25L1.4533 15.25C1.34826 15.2505 1.24451 15.2269 1.15003 15.181C1.05623 15.1354 0.97405 15.0691 0.909705 14.987C0.838686 14.8936 0.789564 14.7853 0.765978 14.6703C0.742238 14.5545 0.744983 14.4349 0.774013 14.3203L0.774506 14.3183C1.0662 13.1469 1.78669 12.1725 2.87782 11.4954C3.84471 10.8964 5.09244 10.557 6.39104 10.557C7.52363 10.557 8.5127 10.751 9.24877 11.1109Z" fill="#057B9F" stroke="white"/>
</svg>
