<svg width="22" height="16" viewBox="0 0 22 16" xmlns="http://www.w3.org/2000/svg">
<path d="M20.75 14V3.75H21.25V14C21.25 14.6858 20.6858 15.25 20 15.25H3.75V14.75H20H20.75V14ZM17.25 2V10C17.25 10.6858 16.6858 11.25 16 11.25H2C1.31421 11.25 0.75 10.6858 0.75 10V2C0.75 1.31421 1.31421 0.75 2 0.75H16C16.6858 0.75 17.25 1.31421 17.25 2ZM5.25 6C5.25 8.07421 6.92579 9.75 9 9.75C11.0742 9.75 12.75 8.07421 12.75 6C12.75 3.92579 11.0742 2.25 9 2.25C6.92579 2.25 5.25 3.92579 5.25 6Z" stroke-width="1.5"/>
</svg>
