<svg width="25" height="24" viewBox="0 0 25 24" fill="none" xmlns="http://www.w3.org/2000/svg">
<path d="M20.0566 2.76616L20.056 2.76648C18.9262 3.38553 15.5328 5.22039 13.4825 6.03521C12.409 6.46767 11.2993 6.80358 10.1667 7.03913V16V16.5H9.66675H9.43275H9.14409L8.99975 16.25C8.95586 16.174 8.89274 16.1109 8.81674 16.067C8.74073 16.0231 8.65451 16 8.56675 16C8.47898 16 8.39277 16.0231 8.31676 16.067C8.24075 16.1109 8.17763 16.174 8.13375 16.25L7.98941 16.5H7.70075H7.66675H7.16675V16V7.43029C6.99354 7.44146 6.81903 7.45118 6.64322 7.45944L6.64281 7.45946C5.28869 7.52197 4.16675 8.61383 4.16675 9.99999V14C4.16675 15.3861 5.28866 16.478 6.64275 16.5405C6.64277 16.5405 6.64279 16.5405 6.64281 16.5405L6.61975 17.04C6.72169 17.0447 6.82361 17.0499 6.92549 17.0557L20.0566 2.76616ZM20.0566 2.76616C20.5591 2.48997 21.1667 2.85744 21.1667 3.42599V20.574C21.1667 21.1425 20.5591 21.51 20.0566 21.2338L20.0563 21.2337C18.926 20.6133 15.5326 18.7795 13.4834 17.9647M20.0566 2.76616L13.4834 17.9647M13.4834 17.9647C12.2011 17.4486 10.8677 17.0703 9.50544 16.8362L9.02584 16.7538L8.93045 17.231L8.15745 21.098L8.15744 21.098C8.14456 21.1625 8.11912 21.2237 8.08257 21.2783C8.04602 21.333 7.99907 21.3798 7.9444 21.4163C7.88973 21.4527 7.82841 21.4781 7.76395 21.4908C7.69949 21.5036 7.63314 21.5036 7.56871 21.4907C7.50427 21.4778 7.443 21.4524 7.38839 21.4158C7.33379 21.3793 7.28691 21.3323 7.25045 21.2776C7.21399 21.223 7.18866 21.1617 7.17589 21.0972C7.16313 21.0328 7.16318 20.9665 7.17604 20.9021C7.17604 20.902 7.17605 20.902 7.17606 20.902L13.4834 17.9647Z" fill="#057B9F" stroke="white"/>
</svg>
