<svg width="149" height="144" viewBox="0 0 149 144" fill="none" xmlns="http://www.w3.org/2000/svg">
<g clip-path="url(#clip0_2971_13387)">
<path fill-rule="evenodd" clip-rule="evenodd" d="M105.36 15.0448C108.876 15.0448 111.999 16.7327 113.96 19.3422V15.0448H122.561C136.811 15.0448 148.364 26.5919 148.364 40.8358V109.612L116.111 90.9379V107.463H113.96V42.9851C113.96 38.2372 110.11 34.3881 105.36 34.3881V15.0448Z" fill="url(#paint0_linear_2971_13387)"/>
<path fill-rule="evenodd" clip-rule="evenodd" d="M148.364 38.8258C147.281 17.322 129.477 0 107.456 0H0V34.3881H106.435C133.967 33.3553 142.737 38.3977 148.364 42.9851V38.8258Z" fill="url(#paint1_linear_2971_13387)"/>
<path d="M0 51.5821H34.4032V97.0958L0 109.612V51.5821Z" fill="url(#paint2_linear_2971_13387)"/>
<path d="M16.1351 141.851L8.016 131.19V141.851H2.13306V117.71H8.016V128.302L16.0663 117.71H22.9814L13.6237 129.54L23.3254 141.851H16.1351ZM36.0294 117.71V132.153C36.0294 133.598 36.3848 134.709 37.0959 135.489C37.8068 136.268 38.8505 136.658 40.2266 136.658C41.6027 136.658 42.6576 136.268 43.3917 135.489C44.1256 134.709 44.4926 133.598 44.4926 132.153V117.71H50.3755V132.119C50.3755 134.274 49.9167 136.097 48.9994 137.587C48.0819 139.077 46.8434 140.2 45.2839 140.957C43.7471 141.713 42.027 142.091 40.1234 142.091C38.2196 142.091 36.5111 141.725 34.9973 140.991C33.5064 140.234 32.3253 139.111 31.4538 137.621C30.5821 136.108 30.1465 134.274 30.1465 132.119V117.71H36.0294ZM64.5178 137.312H72.2241V141.851H58.6349V117.71H64.5178V137.312ZM85.0414 117.71V141.851H79.1585V117.71H85.0414ZM115.038 141.851H109.155L99.3162 126.961V141.851H93.4332V117.71H99.3162L109.155 132.669V117.71H115.038V141.851ZM134.853 142.091C132.582 142.091 130.495 141.564 128.592 140.51C126.711 139.455 125.209 137.988 124.085 136.108C122.984 134.205 122.433 132.073 122.433 129.712C122.433 127.35 122.984 125.23 124.085 123.35C125.209 121.47 126.711 120.003 128.592 118.948C130.495 117.894 132.582 117.366 134.853 117.366C137.124 117.366 139.199 117.894 141.08 118.948C142.983 120.003 144.474 121.47 145.552 123.35C146.653 125.23 147.204 127.35 147.204 129.712C147.204 132.073 146.653 134.205 145.552 136.108C144.451 137.988 142.961 139.455 141.08 140.51C139.199 141.564 137.124 142.091 134.853 142.091ZM134.853 136.727C136.779 136.727 138.316 136.085 139.463 134.801C140.633 133.517 141.218 131.821 141.218 129.712C141.218 127.58 140.633 125.883 139.463 124.622C138.316 123.339 136.779 122.697 134.853 122.697C132.903 122.697 131.344 123.327 130.174 124.588C129.027 125.849 128.454 127.557 128.454 129.712C128.454 131.844 129.027 133.552 130.174 134.836C131.344 136.097 132.903 136.727 134.853 136.727Z" fill="#0F4C92"/>
<path d="M105.36 82.7463C105.36 74.4811 102.075 66.5542 96.2277 60.71C90.3809 54.8655 82.4506 51.5821 74.1818 51.5821C65.913 51.5821 57.9826 54.8655 52.1358 60.71C46.2888 66.5542 43.0039 74.4811 43.0039 82.7463H74.1818H105.36Z" fill="url(#paint3_linear_2971_13387)"/>
<path d="M44.305 80.8525L44.3049 80.8526C42.6151 81.7286 40.7901 82.6715 34.4029 84.1958M44.305 80.8525L100.102 92.3627C98.4124 91.4868 96.5869 90.5436 90.2003 89.0196C87.6113 88.4017 85.6452 88.4585 84.1489 88.8204C82.6513 89.1825 81.6394 89.8465 80.9549 90.4196C80.1476 91.0955 79.5788 91.8434 79.2196 92.4163L79.4314 92.5491L79.2196 92.4163C79.0918 92.6202 78.9963 92.7917 78.9322 92.9155L78.9059 92.9532L78.8928 92.9719L78.8849 92.9894L78.8846 92.9899L78.8846 92.99L78.8827 92.9935C78.8814 92.996 78.8794 92.9997 78.8766 93.0044C78.8739 93.0092 78.8703 93.015 78.866 93.0219C78.8489 93.0492 78.8191 93.0924 78.7727 93.1465C78.6802 93.2543 78.5204 93.4071 78.261 93.5634C77.7428 93.8754 76.8141 94.2087 75.2075 94.2087C73.6009 94.2087 72.672 93.8754 72.1536 93.5633C71.894 93.4071 71.7341 93.2543 71.6416 93.1464C71.5952 93.0923 71.5654 93.0491 71.5482 93.0218C71.5396 93.0082 71.5342 92.9985 71.5315 92.9934L71.5297 92.9899L71.5302 92.991L71.5305 92.9917L71.5307 92.9921C71.5307 92.9922 71.5307 92.9922 71.5246 92.9951L71.5234 92.9956C71.4622 92.8727 71.3544 92.6698 71.1953 92.4162L71.1952 92.4161C70.8355 91.8434 70.2669 91.0955 69.4596 90.4196L69.2991 90.6113L69.4596 90.4196C68.775 89.8465 67.763 89.1825 66.2655 88.8204C64.7692 88.4585 62.8033 88.4016 60.2147 89.0196C53.8274 90.5437 52.0024 91.4868 50.3127 92.3628L50.3126 92.3628L50.1298 92.4577C47.4978 93.8183 44.8388 95.1255 37.2395 96.9392C30.8559 98.4626 22.8453 98.7389 15.7451 98.5733L33.5862 84.379C33.8635 84.3205 34.1358 84.2597 34.4029 84.1958M44.305 80.8525L44.4883 80.7574C44.4883 80.7574 44.4884 80.7574 44.4884 80.7573C47.1197 79.3967 49.7787 78.0895 57.3785 76.2759C64.934 74.4729 70.8072 75.9144 75.0755 78.5671L75.2075 78.6491L75.3394 78.5671C79.607 75.9145 85.4805 74.4729 93.0364 76.2759C100.635 78.0895 103.294 79.3966 105.926 80.7571C105.926 80.7572 105.927 80.7573 105.927 80.7574L106.109 80.8524L106.11 80.8526C107.799 81.7286 109.625 82.6715 116.012 84.1958L116.012 84.1958C116.324 84.2702 116.643 84.341 116.968 84.4084L134.769 98.571C127.644 98.7416 119.588 98.47 113.175 96.9392C105.576 95.1255 102.917 93.8183 100.285 92.4577L100.102 92.3628L44.305 80.8525ZM34.4029 84.1958L34.3449 83.9527L34.4029 84.1958Z" fill="#356AA7" stroke="white" stroke-width="0.5"/>
<path d="M70.9498 104.255L70.9499 104.255L70.9503 104.255C70.9501 104.255 70.95 104.255 70.9498 104.255ZM70.9498 104.255L70.9493 104.254L70.9488 104.253C70.9488 104.253 70.9488 104.253 70.949 104.253M70.9498 104.255C70.9495 104.254 70.9493 104.253 70.949 104.253M70.949 104.253C70.938 104.231 70.9243 104.212 70.9084 104.195M70.949 104.253C70.9492 104.253 70.9497 104.254 70.9504 104.256C70.9516 104.257 70.9533 104.26 70.9557 104.264C70.9583 104.268 70.9617 104.274 70.9659 104.28C70.9821 104.304 71.0107 104.342 71.0557 104.391C71.1454 104.487 71.3018 104.626 71.5569 104.768C72.067 105.052 72.9817 105.356 74.5629 105.356C76.1442 105.356 77.0587 105.052 77.5686 104.768C77.8236 104.626 77.9799 104.487 78.0695 104.391C78.1145 104.342 78.1431 104.304 78.1593 104.28C78.1674 104.268 78.1724 104.26 78.1747 104.256L78.1752 104.255L78.1749 104.256L70.9084 104.195M70.9084 104.195C70.8452 104.082 70.7496 103.922 70.6191 103.729L70.4122 103.87M70.9084 104.195L78.7137 103.87L78.5067 103.729C78.5067 103.729 78.5068 103.729 78.5068 103.729C78.861 103.206 79.4212 102.525 80.2154 101.91L80.3685 102.108M70.9084 104.195C70.8376 104.12 70.7247 104.095 70.6256 104.138C70.6149 104.143 70.6048 104.148 70.5951 104.154C70.545 104.072 70.4842 103.976 70.4122 103.87M70.9084 104.195C70.9216 104.219 70.9333 104.24 70.9437 104.26L0.313857 108.87C0.40429 108.87 0.506053 108.869 0.607771 108.868C0.648461 108.868 0.688489 108.867 0.726937 108.867M70.4122 103.87L70.619 103.729C70.2643 103.207 69.7043 102.525 68.9101 101.91L68.757 102.108M70.4122 103.87C70.0688 103.364 69.5261 102.704 68.757 102.108M68.757 102.108L68.91 101.91C67.5492 100.856 64.9305 99.5123 59.8331 100.638C53.5574 102.023 51.7646 102.88 50.1045 103.677L50.1044 103.677L49.9248 103.763M68.757 102.108C67.455 101.1 64.9122 99.7723 59.887 100.882C53.6289 102.263 51.8542 103.115 50.2133 103.902L50.2126 103.902L50.0326 103.988C47.4287 105.234 44.7971 106.429 37.3099 108.082C29.3774 109.833 18.9213 109.777 10.9389 109.389C9.05305 109.297 7.36536 109.284 5.83807 109.272C4.05101 109.258 2.48354 109.245 1.0751 109.111C1.0751 109.111 0.71059 109.119 0.398877 109.12L0.726937 108.867M49.9248 103.763C47.3381 105 44.7246 106.189 37.256 107.837C29.3586 109.581 18.9314 109.528 10.9511 109.139L10.9511 109.139C9.05985 109.047 7.36737 109.034 5.84047 109.022C5.71044 109.021 5.58161 109.02 5.45396 109.019C3.82453 109.005 2.39236 108.985 1.09876 108.862C1.08911 108.861 1.07942 108.861 1.06973 108.861L1.0697 108.861L1.0696 108.861L1.06914 108.861L1.0673 108.861L1.06 108.861L1.03194 108.862L0.93004 108.864C0.873347 108.865 0.803254 108.866 0.726937 108.867M49.9248 103.763L49.9244 103.763L50.0326 103.988L49.9248 103.763ZM0.726937 108.867L15.5388 97.4614M15.5388 97.4614C22.3152 97.6419 29.3817 97.4204 34.4623 96.2988C40.738 94.9132 42.5308 94.0562 44.1909 93.26L44.191 93.26L44.3711 93.1735L44.2632 92.948L44.3714 93.1734L44.3714 93.1734C46.9573 91.9364 49.5709 90.7478 57.0398 89.0988C64.4684 87.4588 70.2433 88.7705 74.4383 91.1824C74.5155 91.2267 74.6104 91.2267 74.6876 91.1824C78.882 88.7705 84.6571 87.4588 92.086 89.0988C99.5543 90.7478 102.168 91.9364 104.754 93.1734L104.754 93.1733L104.863 92.948L104.755 93.1735L104.934 93.2599L104.935 93.26C106.595 94.0562 108.388 94.9132 114.663 96.2988C119.768 97.4258 126.875 97.6439 133.68 97.4591M15.5388 97.4614C15.5091 97.4606 15.4795 97.4598 15.4499 97.459L15.4566 97.2091L15.6092 97.4071L15.5388 97.4614ZM133.68 97.4591L147.724 108.912M133.68 97.4591L133.608 97.4003L133.766 97.2066M133.68 97.4591C133.711 97.4582 133.742 97.4574 133.773 97.4565L133.766 97.2066M147.724 108.912C146.575 108.991 145.272 109.007 143.828 109.019C143.696 109.02 143.563 109.021 143.429 109.022C141.829 109.034 140.068 109.047 138.175 109.139L138.187 109.389M147.724 108.912L148.006 109.142C146.679 109.247 145.144 109.259 143.432 109.272C141.831 109.284 140.075 109.297 138.187 109.389M147.724 108.912C147.847 108.904 147.967 108.895 148.086 108.885L133.766 97.2066M138.187 109.389L138.175 109.139C130.194 109.528 119.767 109.581 111.869 107.837C104.401 106.189 101.787 105 99.2011 103.763M138.187 109.389C130.204 109.777 119.748 109.833 111.816 108.082C104.328 106.429 101.696 105.234 99.0932 103.988M99.2011 103.763L99.021 103.677M99.2011 103.763L99.2012 103.763L99.0932 103.988M99.2011 103.763L99.0932 103.988M99.021 103.677C97.3612 102.88 95.568 102.023 89.2928 100.638C84.1947 99.5123 81.576 100.856 80.2154 101.91L80.3685 102.108M99.021 103.677L98.9128 103.902M99.021 103.677L99.0208 103.676L98.9128 103.902M80.3685 102.108C81.6702 101.1 84.213 99.7723 89.2389 100.882C95.4975 102.264 97.2722 103.115 98.9128 103.902M80.3685 102.108L98.9128 103.902M98.9128 103.902L99.0932 103.988M98.9128 103.902L99.0932 103.988M99.0932 103.988L114.717 96.0546C119.813 97.1799 126.936 97.3959 133.766 97.2066M78.5268 104.161L78.3131 104.031C78.2762 104.092 78.2451 104.146 78.2196 104.19L78.2007 104.214C78.1913 104.227 78.1831 104.239 78.1762 104.253L78.5268 104.161Z" fill="#0F4C92" stroke="white" stroke-width="0.5" stroke-linejoin="round"/>
</g>
<defs>
<linearGradient id="paint0_linear_2971_13387" x1="126.862" y1="109.06" x2="126.862" y2="11.7914" gradientUnits="userSpaceOnUse">
<stop stop-color="#0F4C92"/>
<stop offset="0.5" stop-color="#0C3D75"/>
<stop offset="1" stop-color="#061E3A"/>
</linearGradient>
<linearGradient id="paint1_linear_2971_13387" x1="74.1818" y1="42.7345" x2="74.1818" y2="-1.47881" gradientUnits="userSpaceOnUse">
<stop stop-color="#0F4C92"/>
<stop offset="0.5" stop-color="#0C3D75"/>
<stop offset="1" stop-color="#061E3A"/>
</linearGradient>
<linearGradient id="paint2_linear_2971_13387" x1="17.2016" y1="109.274" x2="17.2016" y2="49.5856" gradientUnits="userSpaceOnUse">
<stop stop-color="#0F4C92"/>
<stop offset="0.5" stop-color="#0C3D75"/>
<stop offset="1" stop-color="#061E3A"/>
</linearGradient>
<linearGradient id="paint3_linear_2971_13387" x1="74.1818" y1="51.5821" x2="74.1818" y2="113.91" gradientUnits="userSpaceOnUse">
<stop stop-color="#F5BD45"/>
<stop offset="1" stop-color="#9A762A"/>
</linearGradient>
<clipPath id="clip0_2971_13387">
<rect width="148.364" height="144" fill="white"/>
</clipPath>
</defs>
</svg>
