<svg width="25" height="24" viewBox="0 0 25 24" fill="none" xmlns="http://www.w3.org/2000/svg">
<path d="M6.90002 14V12.4H8.50002V14H6.90002ZM17.688 4.40804C17.9502 4.66923 18.0984 5.02361 18.1 5.3937V15.876C18.1 16.1412 18.2054 16.3955 18.3929 16.5831C18.5804 16.7706 18.8348 16.876 19.1 16.876C19.3652 16.876 19.6196 16.7706 19.8071 16.5831C19.9947 16.3955 20.1 16.1412 20.1 15.876V7.59998H20.3924C20.7637 7.59998 21.1198 7.74748 21.3824 8.01003C21.6449 8.27258 21.7924 8.62867 21.7924 8.99998V16.2C21.7924 16.8895 21.5185 17.5509 21.0309 18.0385C20.5433 18.526 19.882 18.8 19.1924 18.8H5.80762C5.11805 18.8 4.45673 18.526 3.96914 18.0385C3.48155 17.5509 3.20762 16.8895 3.20762 16.2V5.39998C3.20762 5.02867 3.35512 4.67258 3.61767 4.41003C3.88022 4.14748 4.23631 3.99998 4.60762 3.99998H16.7C17.0704 3.99997 17.4256 4.1467 17.688 4.40804ZM5.19291 7.09287C5.00537 7.28041 4.90002 7.53476 4.90002 7.79998C4.90002 8.06519 5.00537 8.31955 5.19291 8.50708C5.38045 8.69462 5.6348 8.79998 5.90002 8.79998H15.5C15.7652 8.79998 16.0196 8.69462 16.2071 8.50708C16.3947 8.31955 16.5 8.06519 16.5 7.79998C16.5 7.53476 16.3947 7.28041 16.2071 7.09287C16.0196 6.90533 15.7652 6.79998 15.5 6.79998H5.90002C5.6348 6.79998 5.38045 6.90533 5.19291 7.09287ZM15.5 10.4H11.9C11.6348 10.4 11.3804 10.5053 11.1929 10.6929C11.0054 10.8804 10.9 11.1348 10.9 11.4C10.9 11.6652 11.0054 11.9195 11.1929 12.1071C11.3804 12.2946 11.6348 12.4 11.9 12.4H15.5C15.7652 12.4 16.0196 12.2946 16.2071 12.1071C16.3947 11.9195 16.5 11.6652 16.5 11.4C16.5 11.1348 16.3947 10.8804 16.2071 10.6929C16.0196 10.5053 15.7652 10.4 15.5 10.4ZM11.1929 14.2929C11.0054 14.4804 10.9 14.7348 10.9 15C10.9 15.2652 11.0054 15.5195 11.1929 15.7071C11.3804 15.8946 11.6348 16 11.9 16H15.5C15.7652 16 16.0196 15.8946 16.2071 15.7071C16.3947 15.5195 16.5 15.2652 16.5 15C16.5 14.7348 16.3947 14.4804 16.2071 14.2929C16.0196 14.1053 15.7652 14 15.5 14H11.9C11.6348 14 11.3804 14.1053 11.1929 14.2929ZM9.50002 10.4H5.90002C5.6348 10.4 5.38045 10.5053 5.19291 10.6929C5.00537 10.8804 4.90002 11.1348 4.90002 11.4V15C4.90002 15.2652 5.00537 15.5195 5.19291 15.7071C5.38045 15.8946 5.6348 16 5.90002 16H9.50002C9.76523 16 10.0196 15.8946 10.2071 15.7071C10.3947 15.5195 10.5 15.2652 10.5 15V11.4C10.5 11.1348 10.3947 10.8804 10.2071 10.6929C10.0196 10.5053 9.76523 10.4 9.50002 10.4Z" fill="#057B9F" stroke="white" stroke-width="0.8"/>
</svg>
