<svg width="19" height="22" viewBox="0 0 19 22" fill="none" xmlns="http://www.w3.org/2000/svg">
<path d="M12.4997 18C12.4997 19.6569 11.1566 21 9.49972 21C7.84287 21 6.49972 19.6569 6.49972 18M11.2962 5.23856C11.7317 4.78864 11.9997 4.17562 11.9997 3.5C11.9997 2.11929 10.8804 1 9.49972 1C8.11901 1 6.99972 2.11929 6.99972 3.5C6.99972 4.17562 7.26772 4.78864 7.70322 5.23856M15.4997 10.2C15.4997 8.82087 14.8676 7.49823 13.7424 6.52304C12.6171 5.54786 11.091 5 9.49972 5C7.90842 5 6.3823 5.54786 5.25708 6.52304C4.13186 7.49823 3.49972 8.82087 3.49972 10.2C3.49972 12.4818 2.93385 14.1506 2.22778 15.3447C1.42306 16.7056 1.0207 17.3861 1.03659 17.5486C1.05476 17.7346 1.08824 17.7933 1.23906 17.9036C1.37089 18 2.03323 18 3.35791 18H15.6415C16.9662 18 17.6286 18 17.7604 17.9036C17.9112 17.7933 17.9447 17.7346 17.9629 17.5486C17.9787 17.3861 17.5764 16.7056 16.7717 15.3447C16.0656 14.1506 15.4997 12.4818 15.4997 10.2Z" stroke="#057BA1" stroke-width="2" stroke-linecap="round" stroke-linejoin="round"/>
</svg>
