<svg width="18" height="18" viewBox="0 0 18 18" fill="none" xmlns="http://www.w3.org/2000/svg">
<path d="M13.9999 7.33332L10.6666 3.99999M1.08325 16.9167L3.90356 16.6033C4.24813 16.565 4.42042 16.5459 4.58146 16.4937C4.72433 16.4475 4.86029 16.3821 4.98566 16.2995C5.12696 16.2063 5.24954 16.0837 5.49469 15.8386L16.4999 4.83332C17.4204 3.91285 17.4204 2.42046 16.4999 1.49999C15.5795 0.579513 14.0871 0.579512 13.1666 1.49999L2.16136 12.5052C1.91621 12.7504 1.79363 12.8729 1.70045 13.0142C1.61778 13.1396 1.55243 13.2756 1.50618 13.4185C1.45405 13.5795 1.43491 13.7518 1.39662 14.0964L1.08325 16.9167Z" stroke="white" stroke-width="1.5" stroke-linecap="round" stroke-linejoin="round"/>
</svg>
