<svg width="40" height="40" viewBox="0 0 40 40" fill="none" xmlns="http://www.w3.org/2000/svg">
<circle opacity="0.05" cx="20" cy="20" r="20" fill="#356AA7"/>
<path d="M20 22.5C17.3582 22.5 15.009 23.7755 13.5133 25.755C13.1914 26.181 13.0304 26.394 13.0357 26.6819C13.0398 26.9043 13.1794 27.1849 13.3544 27.3222C13.581 27.5 13.8949 27.5 14.5227 27.5H25.4773C26.1051 27.5 26.419 27.5 26.6455 27.3222C26.8205 27.1849 26.9602 26.9043 26.9642 26.6819C26.9695 26.394 26.8086 26.181 26.4866 25.755C24.991 23.7755 22.6417 22.5 20 22.5Z" stroke="#356AA7" stroke-linecap="round" stroke-linejoin="round"/>
<path d="M20 20C22.071 20 23.75 18.3211 23.75 16.25C23.75 14.1789 22.071 12.5 20 12.5C17.9289 12.5 16.25 14.1789 16.25 16.25C16.25 18.3211 17.9289 20 20 20Z" stroke="#356AA7" stroke-linecap="round" stroke-linejoin="round"/>
</svg>
