<svg width="109" height="45" viewBox="0 0 109 45" fill="none" xmlns="http://www.w3.org/2000/svg">
<path d="M81.75 13.125L54.5 7.875L27.25 13.125" stroke="#356AA7" stroke-width="2" stroke-linecap="round" stroke-linejoin="round"/>
<path d="M76.25 17.625L54.5 13.375L32.75 17.625" stroke="#356AA7" stroke-width="2" stroke-linecap="round" stroke-linejoin="round"/>
<path d="M8.256 39.098C7.60267 39.098 7.01467 38.986 6.492 38.762C5.96933 38.5287 5.55867 38.202 5.26 37.782C4.96133 37.362 4.812 36.872 4.812 36.312H6.52C6.55733 36.732 6.72067 37.0773 7.01 37.348C7.30867 37.6187 7.724 37.754 8.256 37.754C8.80667 37.754 9.236 37.6233 9.544 37.362C9.852 37.0913 10.006 36.746 10.006 36.326C10.006 35.9993 9.908 35.7333 9.712 35.528C9.52533 35.3227 9.28733 35.164 8.998 35.052C8.718 34.94 8.326 34.8187 7.822 34.688C7.18733 34.52 6.66933 34.352 6.268 34.184C5.876 34.0067 5.54 33.736 5.26 33.372C4.98 33.008 4.84 32.5227 4.84 31.916C4.84 31.356 4.98 30.866 5.26 30.446C5.54 30.026 5.932 29.704 6.436 29.48C6.94 29.256 7.52333 29.144 8.186 29.144C9.12867 29.144 9.89867 29.382 10.496 29.858C11.1027 30.3247 11.4387 30.9687 11.504 31.79H9.74C9.712 31.4353 9.544 31.132 9.236 30.88C8.928 30.628 8.522 30.502 8.018 30.502C7.56067 30.502 7.18733 30.6187 6.898 30.852C6.60867 31.0853 6.464 31.4213 6.464 31.86C6.464 32.1587 6.55267 32.406 6.73 32.602C6.91667 32.7887 7.15 32.938 7.43 33.05C7.71 33.162 8.09267 33.2833 8.578 33.414C9.222 33.5913 9.74467 33.7687 10.146 33.946C10.5567 34.1233 10.902 34.3987 11.182 34.772C11.4713 35.136 11.616 35.626 11.616 36.242C11.616 36.7367 11.4807 37.2033 11.21 37.642C10.9487 38.0807 10.5613 38.4353 10.048 38.706C9.544 38.9673 8.94667 39.098 8.256 39.098ZM23.8592 31.286L21.4652 39H19.7852L18.2312 33.302L16.6772 39H14.9972L12.5892 31.286H14.2132L15.8232 37.488L17.4612 31.286H19.1272L20.6952 37.46L22.2912 31.286H23.8592ZM25.864 30.264C25.5746 30.264 25.332 30.166 25.136 29.97C24.94 29.774 24.842 29.5313 24.842 29.242C24.842 28.9527 24.94 28.71 25.136 28.514C25.332 28.318 25.5746 28.22 25.864 28.22C26.144 28.22 26.382 28.318 26.578 28.514C26.774 28.71 26.872 28.9527 26.872 29.242C26.872 29.5313 26.774 29.774 26.578 29.97C26.382 30.166 26.144 30.264 25.864 30.264ZM26.648 31.286V39H25.052V31.286H26.648ZM30.3394 32.42C30.61 32.0653 30.9787 31.7667 31.4454 31.524C31.912 31.2813 32.4394 31.16 33.0274 31.16C33.6994 31.16 34.3107 31.328 34.8614 31.664C35.4214 31.9907 35.86 32.4527 36.1774 33.05C36.4947 33.6473 36.6534 34.3333 36.6534 35.108C36.6534 35.8827 36.4947 36.578 36.1774 37.194C35.86 37.8007 35.4214 38.2767 34.8614 38.622C34.3107 38.958 33.6994 39.126 33.0274 39.126C32.4394 39.126 31.9167 39.0093 31.4594 38.776C31.002 38.5333 30.6287 38.2347 30.3394 37.88V42.668H28.7434V31.286H30.3394V32.42ZM35.0294 35.108C35.0294 34.576 34.9174 34.1187 34.6934 33.736C34.4787 33.344 34.1894 33.05 33.8254 32.854C33.4707 32.6487 33.088 32.546 32.6774 32.546C32.276 32.546 31.8934 32.6487 31.5294 32.854C31.1747 33.0593 30.8854 33.358 30.6614 33.75C30.4467 34.142 30.3394 34.604 30.3394 35.136C30.3394 35.668 30.4467 36.1347 30.6614 36.536C30.8854 36.928 31.1747 37.2267 31.5294 37.432C31.8934 37.6373 32.276 37.74 32.6774 37.74C33.088 37.74 33.4707 37.6373 33.8254 37.432C34.1894 37.2173 34.4787 36.9093 34.6934 36.508C34.9174 36.1067 35.0294 35.64 35.0294 35.108ZM45.3016 34.954C45.3016 35.2433 45.283 35.5047 45.2456 35.738H39.3516C39.3983 36.354 39.627 36.8487 40.0376 37.222C40.4483 37.5953 40.9523 37.782 41.5496 37.782C42.4083 37.782 43.015 37.4227 43.3696 36.704H45.0916C44.8583 37.4133 44.4336 37.9967 43.8176 38.454C43.211 38.902 42.455 39.126 41.5496 39.126C40.8123 39.126 40.1496 38.9627 39.5616 38.636C38.983 38.3 38.5256 37.8333 38.1896 37.236C37.863 36.6293 37.6996 35.9293 37.6996 35.136C37.6996 34.3427 37.8583 33.6473 38.1756 33.05C38.5023 32.4433 38.955 31.9767 39.5336 31.65C40.1216 31.3233 40.7936 31.16 41.5496 31.16C42.2776 31.16 42.9263 31.3187 43.4956 31.636C44.065 31.9533 44.5083 32.4013 44.8256 32.98C45.143 33.5493 45.3016 34.2073 45.3016 34.954ZM43.6356 34.45C43.6263 33.862 43.4163 33.3907 43.0056 33.036C42.595 32.6813 42.0863 32.504 41.4796 32.504C40.929 32.504 40.4576 32.6813 40.0656 33.036C39.6736 33.3813 39.4403 33.8527 39.3656 34.45H43.6356ZM52.371 32.588V36.858C52.371 37.1473 52.4363 37.3573 52.567 37.488C52.707 37.6093 52.9403 37.67 53.267 37.67H54.247V39H52.987C52.2683 39 51.7177 38.832 51.335 38.496C50.9523 38.16 50.761 37.614 50.761 36.858V32.588H49.851V31.286H50.761V29.368H52.371V31.286H54.247V32.588H52.371ZM59.064 39.126C58.336 39.126 57.678 38.9627 57.09 38.636C56.502 38.3 56.04 37.8333 55.704 37.236C55.368 36.6293 55.2 35.9293 55.2 35.136C55.2 34.352 55.3726 33.6567 55.718 33.05C56.0633 32.4433 56.5346 31.9767 57.132 31.65C57.7293 31.3233 58.3966 31.16 59.134 31.16C59.8713 31.16 60.5386 31.3233 61.136 31.65C61.7333 31.9767 62.2046 32.4433 62.55 33.05C62.8953 33.6567 63.068 34.352 63.068 35.136C63.068 35.92 62.8906 36.6153 62.536 37.222C62.1813 37.8287 61.696 38.3 61.08 38.636C60.4733 38.9627 59.8013 39.126 59.064 39.126ZM59.064 37.74C59.4746 37.74 59.8573 37.642 60.212 37.446C60.576 37.25 60.87 36.956 61.094 36.564C61.318 36.172 61.43 35.696 61.43 35.136C61.43 34.576 61.3226 34.1047 61.108 33.722C60.8933 33.33 60.6086 33.036 60.254 32.84C59.8993 32.644 59.5166 32.546 59.106 32.546C58.6953 32.546 58.3126 32.644 57.958 32.84C57.6126 33.036 57.3373 33.33 57.132 33.722C56.9266 34.1047 56.824 34.576 56.824 35.136C56.824 35.9667 57.034 36.6107 57.454 37.068C57.8833 37.516 58.42 37.74 59.064 37.74ZM69.8784 37.712H73.1684V39H68.2824V29.27H69.8784V37.712ZM77.8491 39.126C77.1211 39.126 76.4631 38.9627 75.8751 38.636C75.2871 38.3 74.8251 37.8333 74.4891 37.236C74.1531 36.6293 73.9851 35.9293 73.9851 35.136C73.9851 34.352 74.1578 33.6567 74.5031 33.05C74.8485 32.4433 75.3198 31.9767 75.9171 31.65C76.5145 31.3233 77.1818 31.16 77.9191 31.16C78.6565 31.16 79.3238 31.3233 79.9211 31.65C80.5185 31.9767 80.9898 32.4433 81.3351 33.05C81.6805 33.6567 81.8531 34.352 81.8531 35.136C81.8531 35.92 81.6758 36.6153 81.3211 37.222C80.9665 37.8287 80.4811 38.3 79.8651 38.636C79.2585 38.9627 78.5865 39.126 77.8491 39.126ZM77.8491 37.74C78.2598 37.74 78.6425 37.642 78.9971 37.446C79.3611 37.25 79.6551 36.956 79.8791 36.564C80.1031 36.172 80.2151 35.696 80.2151 35.136C80.2151 34.576 80.1078 34.1047 79.8931 33.722C79.6785 33.33 79.3938 33.036 79.0391 32.84C78.6845 32.644 78.3018 32.546 77.8911 32.546C77.4805 32.546 77.0978 32.644 76.7431 32.84C76.3978 33.036 76.1225 33.33 75.9171 33.722C75.7118 34.1047 75.6091 34.576 75.6091 35.136C75.6091 35.9667 75.8191 36.6107 76.2391 37.068C76.6685 37.516 77.2051 37.74 77.8491 37.74ZM86.5389 31.16C87.1362 31.16 87.6635 31.2813 88.1209 31.524C88.5875 31.7573 88.9515 32.0513 89.2129 32.406V31.286H90.8229V39.126C90.8229 39.8353 90.6735 40.4653 90.3749 41.016C90.0762 41.576 89.6422 42.0147 89.0729 42.332C88.5129 42.6493 87.8409 42.808 87.0569 42.808C86.0115 42.808 85.1435 42.5607 84.4529 42.066C83.7622 41.5807 83.3702 40.918 83.2769 40.078H84.8589C84.9802 40.4793 85.2369 40.8013 85.6289 41.044C86.0302 41.296 86.5062 41.422 87.0569 41.422C87.7009 41.422 88.2189 41.226 88.6109 40.834C89.0122 40.442 89.2129 39.8727 89.2129 39.126V37.838C88.9422 38.202 88.5735 38.51 88.1069 38.762C87.6495 39.0047 87.1269 39.126 86.5389 39.126C85.8669 39.126 85.2509 38.958 84.6909 38.622C84.1402 38.2767 83.7015 37.8007 83.3749 37.194C83.0575 36.578 82.8989 35.8827 82.8989 35.108C82.8989 34.3333 83.0575 33.6473 83.3749 33.05C83.7015 32.4527 84.1402 31.9907 84.6909 31.664C85.2509 31.328 85.8669 31.16 86.5389 31.16ZM89.2129 35.136C89.2129 34.604 89.1009 34.142 88.8769 33.75C88.6622 33.358 88.3775 33.0593 88.0229 32.854C87.6682 32.6487 87.2855 32.546 86.8749 32.546C86.4642 32.546 86.0815 32.6487 85.7269 32.854C85.3722 33.05 85.0829 33.344 84.8589 33.736C84.6442 34.1187 84.5369 34.576 84.5369 35.108C84.5369 35.64 84.6442 36.1067 84.8589 36.508C85.0829 36.9093 85.3722 37.2173 85.7269 37.432C86.0909 37.6373 86.4735 37.74 86.8749 37.74C87.2855 37.74 87.6682 37.6373 88.0229 37.432C88.3775 37.2267 88.6622 36.928 88.8769 36.536C89.1009 36.1347 89.2129 35.668 89.2129 35.136ZM93.7311 30.264C93.4418 30.264 93.1991 30.166 93.0031 29.97C92.8071 29.774 92.7091 29.5313 92.7091 29.242C92.7091 28.9527 92.8071 28.71 93.0031 28.514C93.1991 28.318 93.4418 28.22 93.7311 28.22C94.0111 28.22 94.2491 28.318 94.4451 28.514C94.6411 28.71 94.7391 28.9527 94.7391 29.242C94.7391 29.5313 94.6411 29.774 94.4451 29.97C94.2491 30.166 94.0111 30.264 93.7311 30.264ZM94.5151 31.286V39H92.9191V31.286H94.5151ZM100.503 31.16C101.109 31.16 101.651 31.286 102.127 31.538C102.612 31.79 102.99 32.1633 103.261 32.658C103.531 33.1527 103.667 33.75 103.667 34.45V39H102.085V34.688C102.085 33.9973 101.912 33.47 101.567 33.106C101.221 32.7327 100.75 32.546 100.153 32.546C99.5552 32.546 99.0792 32.7327 98.7245 33.106C98.3792 33.47 98.2065 33.9973 98.2065 34.688V39H96.6105V31.286H98.2065V32.168C98.4679 31.8507 98.7992 31.6033 99.2005 31.426C99.6112 31.2487 100.045 31.16 100.503 31.16Z" fill="#0F4C92"/>
</svg>
