<svg width="40" height="40" viewBox="0 0 40 40" fill="none" xmlns="http://www.w3.org/2000/svg">
<circle opacity="0.05" cx="20" cy="20" r="20" fill="#356AA7"/>
<path d="M17.5 19.5833L19.1666 21.25L22.9166 17.5M26.6666 20C26.6666 24.0904 22.205 27.0653 20.5816 28.0124C20.3971 28.12 20.3049 28.1738 20.1747 28.2018C20.0737 28.2234 19.9263 28.2234 19.8252 28.2018C19.6951 28.1738 19.6028 28.12 19.4183 28.0124C17.7949 27.0653 13.3333 24.0904 13.3333 20V16.0147C13.3333 15.3484 13.3333 15.0153 13.4423 14.7289C13.5385 14.476 13.695 14.2502 13.898 14.0713C14.1279 13.8687 14.4398 13.7517 15.0637 13.5178L19.5318 11.8422C19.7051 11.7773 19.7917 11.7448 19.8808 11.7319C19.9598 11.7205 20.0401 11.7205 20.1192 11.7319C20.2083 11.7448 20.2949 11.7773 20.4681 11.8422L24.9363 13.5178C25.5601 13.7517 25.8721 13.8687 26.1019 14.0713C26.305 14.2502 26.4614 14.476 26.5577 14.7289C26.6666 15.0153 26.6666 15.3484 26.6666 16.0147V20Z" stroke="#356AA7" stroke-linecap="round" stroke-linejoin="round"/>
</svg>
